<?xml version="1.0" encoding="utf-8"?>
<!-- Generator: Adobe Illustrator 17.1.0, SVG Export Plug-In . SVG Version: 6.00 Build 0)  -->
<!DOCTYPE svg PUBLIC "-//W3C//DTD SVG 1.1//EN" "http://www.w3.org/Graphics/SVG/1.1/DTD/svg11.dtd">
<svg version="1.1" id="Layer_1" xmlns="http://www.w3.org/2000/svg" xmlns:xlink="http://www.w3.org/1999/xlink" x="0px" y="0px"
	 viewBox="0 0 35.31 55.24" style="enable-background:new 0 0 35.31 55.24;" xml:space="preserve">
<style type="text/css">
	.st0{fill:#DD847A;}
	.st1{fill:#1B1464;}
</style>
<g>
	<path class="st0" d="M20.84,16.12l14.47-2.96L17.21,2.75c-2.29-1.33-5.06,0.8-4.53,3.4l0.27,1.31l2.07,10.12l3.09,15.12
		c-3.13-0.34-7.38,1.22-10.41,4.31c-4.81,4.91-5.55,11.98-1.66,15.8c3.89,3.82,10.98,3.08,15.79-1.82
		c3.04-3.11,4.39-7.39,4.13-10.39L20.84,16.12z"/>
	<path class="st1" d="M17.3,13.78l14.47-2.96L13.67,0.41c-2.29-1.33-5.06,0.8-4.53,3.4l0.27,1.31l2.07,10.12l3.09,15.12
		c-3.13-0.34-7.38,1.22-10.41,4.31c-4.81,4.91-5.55,11.98-1.66,15.8c3.89,3.82,10.98,3.08,15.79-1.82
		c3.04-3.11,4.39-7.39,4.13-10.39L17.3,13.78z"/>
</g>
<g>
</g>
<g>
</g>
<g>
</g>
<g>
</g>
<g>
</g>
<g>
</g>
<g>
</g>
<g>
</g>
<g>
</g>
<g>
</g>
<g>
</g>
<g>
</g>
<g>
</g>
<g>
</g>
<g>
</g>
</svg>
