<?xml version="1.0" encoding="utf-8"?>
<!-- Generator: Adobe Illustrator 17.1.0, SVG Export Plug-In . SVG Version: 6.00 Build 0)  -->
<!DOCTYPE svg PUBLIC "-//W3C//DTD SVG 1.1//EN" "http://www.w3.org/Graphics/SVG/1.1/DTD/svg11.dtd">
<svg version="1.1" id="Layer_1" xmlns="http://www.w3.org/2000/svg" xmlns:xlink="http://www.w3.org/1999/xlink" x="0px" y="0px"
	 viewBox="0 0 29.22 31.4" style="enable-background:new 0 0 29.22 31.4;" xml:space="preserve">
<style type="text/css">
	.st0{fill:#DD847A;}
	.st1{fill:#1B1464;}
</style>
<g>
	<path class="st0" d="M20.43,11.61l8.8,2.66L22.39,3.21c-0.86-1.41-3.01-1.06-3.48,0.52l-0.24,0.8l-1.86,6.15l-2.78,9.19
		c-1.61-1.11-4.4-1.52-6.98-0.72c-4.09,1.26-6.58,4.91-5.58,8.16c1,3.24,5.1,4.94,9.18,3.67c2.59-0.8,4.59-2.74,5.33-4.47
		L20.43,11.61z"/>
	<path class="st1" d="M19.18,9.28l8.8,2.66L21.15,0.88c-0.86-1.41-3.01-1.06-3.48,0.52l-0.24,0.8l-1.86,6.15l-2.78,9.19
		c-1.61-1.11-4.4-1.52-6.98-0.72c-4.09,1.26-6.58,4.91-5.58,8.16c1,3.24,5.1,4.94,9.18,3.67c2.59-0.8,4.59-2.74,5.33-4.47
		L19.18,9.28z"/>
</g>
<g>
</g>
<g>
</g>
<g>
</g>
<g>
</g>
<g>
</g>
<g>
</g>
<g>
</g>
<g>
</g>
<g>
</g>
<g>
</g>
<g>
</g>
<g>
</g>
<g>
</g>
<g>
</g>
<g>
</g>
</svg>
