<?xml version="1.0" encoding="utf-8"?>
<!-- Generator: Adobe Illustrator 17.1.0, SVG Export Plug-In . SVG Version: 6.00 Build 0)  -->
<!DOCTYPE svg PUBLIC "-//W3C//DTD SVG 1.1//EN" "http://www.w3.org/Graphics/SVG/1.1/DTD/svg11.dtd">
<svg version="1.1" id="Layer_1" xmlns="http://www.w3.org/2000/svg" xmlns:xlink="http://www.w3.org/1999/xlink" x="0px" y="0px"
	 viewBox="0 0 19.39 18.46" style="enable-background:new 0 0 19.39 18.46;" xml:space="preserve">
<style type="text/css">
	.st0{fill:#DD847A;}
	.st1{fill:#1B1464;}
</style>
<g>
	<path class="st0" d="M14.18,7.38l5.21,2.66l-3.03-7.69c-0.38-0.98-1.76-1-2.24-0.07l-0.24,0.47L12.02,6.4l-2.78,5.44
		c-0.88-0.88-2.58-1.45-4.29-1.24c-2.7,0.33-4.68,2.34-4.41,4.48c0.26,2.14,2.64,3.67,5.34,3.34c1.71-0.21,3.18-1.2,3.84-2.2
		L14.18,7.38z"/>
	<path class="st1" d="M13.66,5.79l5.21,2.66l-3.03-7.69c-0.38-0.98-1.76-1-2.24-0.07l-0.24,0.47L11.5,4.8l-2.78,5.44
		C7.84,9.36,6.14,8.8,4.44,9c-2.7,0.33-4.68,2.34-4.41,4.48c0.26,2.14,2.64,3.67,5.34,3.34c1.71-0.21,3.18-1.2,3.84-2.2L13.66,5.79z
		"/>
</g>
<g>
</g>
<g>
</g>
<g>
</g>
<g>
</g>
<g>
</g>
<g>
</g>
<g>
</g>
<g>
</g>
<g>
</g>
<g>
</g>
<g>
</g>
<g>
</g>
<g>
</g>
<g>
</g>
<g>
</g>
</svg>
