<?xml version="1.0" encoding="utf-8"?>
<!-- Generator: Adobe Illustrator 17.1.0, SVG Export Plug-In . SVG Version: 6.00 Build 0)  -->
<!DOCTYPE svg PUBLIC "-//W3C//DTD SVG 1.1//EN" "http://www.w3.org/Graphics/SVG/1.1/DTD/svg11.dtd">
<svg version="1.1" id="Layer_1" xmlns="http://www.w3.org/2000/svg" xmlns:xlink="http://www.w3.org/1999/xlink" x="0px" y="0px"
	 viewBox="0 0 469.69 240.02" style="enable-background:new 0 0 469.69 240.02;" xml:space="preserve">
<style type="text/css">
	.st0{fill:#0059BA;}
	.st1{fill:#24A7FF;}
	.st2{fill:#71DEFF;}
	.st3{opacity:0.31;}
	.st4{fill:#004A5E;}
	.st5{fill:#0071BB;}
	.st6{fill:#CFF8FF;}
	.st7{fill:#88E9FF;}
	.st8{fill:#1FBAFF;}
	.st9{fill:#0092BF;}
</style>
<path class="st0" d="M429.85,1.11L461.33,0c4.28,12.28,4.09,11.74,8.37,24.02L444.34,42.7c-4.35,3.2-10.43,1.37-12.15-3.57
	l-9.64-27.68C420.83,6.51,424.46,1.31,429.85,1.11z"/>
<path class="st1" d="M444.34,42.7l25.35-18.68c-2.28-6.53-3.33-9.57-4.27-12.25l-38.14,13.29l4.9,14.08
	C433.91,44.08,439.99,45.9,444.34,42.7z"/>
<path class="st2" d="M5.54,163.15l-3.47-16.1c-3.23-15-2.68-30.57,1.61-45.3l0.13-0.43c3.8-13.06,11.98-24.41,23.16-32.15l0.36-0.25
	c12.04-8.33,25.91-13.3,40.5-14.52l42.12-5.55l4.35,12.5l14.19,2.15c16.67,2.6,33.81,0.51,49.37-5.99l12.63-5.27l-2.65-12.72
	l27.21-14.84c17.5-10.27,38.32-13.32,58.03-8.5l0.57,0.14c16.45,4.02,30.57,14.55,39.13,29.16l3.04,5.2
	c4.36,7.45,7.23,15.69,8.44,24.24l0.85,5.96c2.38,16.77-2.15,33.79-12.54,47.16l-0.36,0.46c-12.45,16.02-30.65,26.57-50.75,29.39
	l-30.53,5.27l-5.81-11.62l-13.14,3.7c-16.24,4.58-31.03,13.61-42.48,26l-9.79,10.5l4.35,12.5l-36.46,21.82
	c-12.18,8.11-26.21,12.86-40.82,13.81l-0.4,0.02c-13.57,0.89-27.02-2.93-38.11-10.81l-0.36-0.26c-12.51-8.88-22.61-20.74-29.4-34.5
	l-7.28-14.77C8.68,174.34,6.77,168.83,5.54,163.15z"/>
<polygon class="st3" points="430.48,35.42 427.54,36.54 420.48,16.28 423.38,15.33 "/>
<path class="st1" d="M127.63,226.07l36.46-21.82l-4.35-12.5l9.79-10.5c11.45-12.4,26.17-21.4,42.41-25.98l13.17-3.71l5.83,11.61
	l30.54-5.28c20.1-2.82,38.3-13.37,50.75-29.39l0.36-0.46c10.39-13.38,14.92-30.39,12.54-47.16l-0.79-5.8
	c-0.6-4.27-1.81-9.01-2.98-12.35L8.01,171.86c0.7,2.01,2.02,5.25,3.3,7.85l7.26,14.7c6.79,13.76,16.88,25.58,29.39,34.46l0.36,0.24
	c11.09,7.87,24.55,11.68,38.12,10.79l0.37-0.01C101.41,238.93,115.44,234.18,127.63,226.07z"/>
<rect x="85.32" y="133.99" transform="matrix(0.329 0.9443 -0.9443 0.329 203.0951 -15.7006)" class="st4" width="54.56" height="2.13"/>
<rect x="166.97" y="107.42" transform="matrix(0.329 0.9443 -0.9443 0.329 228.8436 -104.3798)" class="st4" width="41.8" height="2.83"/>
<rect x="426.28" y="17.69" transform="matrix(-0.9443 0.329 -0.329 -0.9443 874.2642 -110.4204)" class="st4" width="40.39" height="2.13"/>
<rect x="91" y="128.12" transform="matrix(0.329 0.9443 -0.9443 0.329 205.0405 -22.4008)" class="st5" width="54.56" height="9.92"/>
<g>
	<g>
		<path class="st5" d="M73.7,177.4l-67.29,0.67c-1.93-5.53-1.89-5.41-3.81-10.94l53.14-41.28L73.7,177.4z"/>
		<polygon class="st6" points="52.18,171.63 65.66,171.54 52.78,134.58 42.17,142.88 		"/>
	</g>
	<polygon class="st4" points="48.16,168.7 41.04,148.26 42.17,142.88 52.18,171.63 	"/>
</g>
<path class="st7" d="M308.86,66.31l-3.88-11.15c-14.01-29.45-61.73-30.76-88.66-15.44l18.27,52.46L308.86,66.31z"/>
<path class="st8" d="M309.09,66.98l3.74,10.75c7.32,31.78-29.26,62.46-59.88,67.19l-18.14-52.06L309.09,66.98z"/>
<polygon class="st7" points="64.87,152.06 55.7,125.73 105.28,117.3 111.71,135.74 "/>
<polygon class="st8" points="73.82,177.76 64.87,152.06 111.71,135.74 117.85,153.36 "/>
<polygon class="st0" points="430.79,35.32 423.84,15.17 182.21,88.29 196.1,128.15 "/>
<g>
	<path class="st9" d="M80.43,83.6c-0.47-1.34-0.62-2.74-0.45-4.16c0.38-3.17,2.22-5.88,5.05-7.44c2.87-1.58,6.29-1.71,9.15-0.34
		c2.05,0.98,2.92,3.43,1.94,5.48c-0.98,2.05-3.43,2.92-5.48,1.94c-0.46-0.22-1.1-0.17-1.63,0.12c-0.35,0.19-0.78,0.56-0.85,1.21
		c-0.02,0.15-0.06,0.51,0.43,1.13c1.03,1.29,3.43,2.48,5.48,2.7c8.12,0.89,16.62-1.89,24.84-4.57l1.25-0.41
		c1.09-0.36,2.38-0.81,3.73-1.3c7.69-2.75,18.22-6.52,25.79-3.21c5.2,2.28,8.61,8,8.11,13.62c-0.31,3.45-2.38,6.71-5.28,8.3
		c-2.42,1.33-5.23,1.36-7.71,0.08c-2.02-1.04-2.81-3.52-1.77-5.54c1.04-2.02,3.52-2.81,5.54-1.77c0,0,0.01,0,0.01,0.01
		c0.34-0.2,0.94-1.01,1.01-1.81c0.19-2.12-1.22-4.47-3.21-5.34c-4.58-2-13.69,1.26-19.72,3.42c-1.41,0.51-2.75,0.98-3.96,1.38
		l-1.24,0.41c-8.63,2.82-18.41,6.01-28.29,4.93c-3.26-0.36-8.1-2.08-11.02-5.76C81.38,85.69,80.8,84.67,80.43,83.6z"/>
</g>
<g>
	<path class="st5" d="M119.42,195.52c-0.37-1.07-0.56-2.23-0.56-3.46c0.01-4.7,2.73-9.06,5.06-11.36
		c7.07-6.99,16.72-10.56,25.23-13.71l1.23-0.45c1.19-0.44,2.53-0.9,3.96-1.38c6.07-2.05,15.23-5.16,17.58-9.58
		c1.02-1.92,0.67-4.64-0.8-6.18c-0.56-0.58-1.53-0.85-1.92-0.79c0,0,0,0.01-0.01,0.01c-0.94,2.07-3.37,2.99-5.44,2.05
		c-2.07-0.94-2.99-3.37-2.05-5.44c1.15-2.54,3.37-4.27,6.09-4.73c3.26-0.55,6.9,0.72,9.29,3.23c3.88,4.08,4.77,10.69,2.1,15.71
		c-3.88,7.3-14.47,10.89-22.2,13.51c-1.36,0.46-2.65,0.9-3.73,1.3l-1.23,0.46c-8.11,3-16.49,6.11-22.31,11.85
		c-1.46,1.45-2.61,3.87-2.61,5.52c0,0.79,0.25,1.04,0.36,1.15c0.47,0.46,1.03,0.48,1.42,0.42c0.6-0.1,1.13-0.46,1.35-0.92
		c1-2.04,3.46-2.89,5.5-1.89c2.04,1,2.89,3.46,1.89,5.5c-1.39,2.85-4.15,4.88-7.38,5.42c-3.19,0.54-6.32-0.44-8.59-2.69
		C120.64,198.05,119.89,196.86,119.42,195.52z"/>
</g>
<g>
</g>
<g>
</g>
<g>
</g>
<g>
</g>
<g>
</g>
<g>
</g>
<g>
</g>
<g>
</g>
<g>
</g>
<g>
</g>
<g>
</g>
<g>
</g>
<g>
</g>
<g>
</g>
<g>
</g>
</svg>
