<?xml version="1.0" encoding="utf-8"?>
<!-- Generator: Adobe Illustrator 17.1.0, SVG Export Plug-In . SVG Version: 6.00 Build 0)  -->
<!DOCTYPE svg PUBLIC "-//W3C//DTD SVG 1.1//EN" "http://www.w3.org/Graphics/SVG/1.1/DTD/svg11.dtd">
<svg version="1.1" id="Layer_1" xmlns="http://www.w3.org/2000/svg" xmlns:xlink="http://www.w3.org/1999/xlink" x="0px" y="0px"
	 viewBox="0 0 474.6 260.58" style="enable-background:new 0 0 474.6 260.58;" xml:space="preserve">
<style type="text/css">
	.st0{fill:#CE7165;}
</style>
<g>
	
		<rect x="457.81" y="59.16" transform="matrix(0.9443 -0.329 0.329 0.9443 4.8212 156.7367)" class="st0" width="15.59" height="9.92"/>
	<path class="st0" d="M449.25,64.56l-0.47-1.34h0l-0.9-2.58l8.36-6.16l1.91,5.47l0,0l0.47,1.34l10.04-3.5l-0.47-1.34h0l-2.99-8.58
		l4.49-3.31c-0.47-1.36-0.89-2.55-1.27-3.63c-0.45-1.29-0.84-2.41-1.19-3.4c-0.07-0.19-0.13-0.37-0.19-0.55
		c-0.17-0.5-0.33-0.96-0.49-1.4c-0.09-0.26-0.18-0.51-0.26-0.75c-0.01-0.04-0.03-0.08-0.04-0.13c-0.04-0.12-0.08-0.24-0.12-0.36
		c-0.07-0.19-0.13-0.37-0.19-0.55c-0.11-0.3-0.21-0.6-0.31-0.9c-0.02-0.04-0.03-0.09-0.05-0.13c-0.04-0.12-0.08-0.23-0.12-0.35
		c-0.01-0.03-0.02-0.07-0.04-0.1l0,0c-0.02-0.05-0.03-0.09-0.05-0.14l-0.18-0.53l0,0c-0.93-2.66-1.95-5.59-3.87-11.1l-5.57,0.2
		l-3.64-10.46l2.68-0.93L451.52,0L436.8,5.13l3.26,9.37l2.01-0.7l0.47,1.34l0,0l2.1,6.02l-10.38,0.37l-1.09-3.12l0,0l-0.2-0.59
		l-0.26-0.75l2.68-0.93l-3.26-9.37l-15.39,5.36l3.26,9.37l2.68-0.93l0.43,1.23l0.04,0.11l0,0l0.89,2.55c-1.73,2-2.43,4.83-1.47,7.57
		l4.87,13.97l0.34,0.97l0,0l4.44,12.74c0.65,1.85,1.9,3.27,3.45,4.14c0.75,0.42,1.56,0.71,2.41,0.87l0.7,2.01l0,0l0.47,1.34
		l-2.68,0.93l3.26,9.37L455.19,73l-3.26-9.37L449.25,64.56z"/>
	<path class="st0" d="M430.79,55.88l-6.95-20.15l-109.4,33.11l-1.64-2.8c-8.56-14.62-22.68-25.14-39.13-29.16l-0.57-0.14
		c-19.71-4.82-40.53-1.77-58.03,8.5l-27.21,14.84l2.65,12.72l-12.63,5.27c-15.57,6.5-32.7,8.59-49.37,5.99l-14.19-2.15l-4.35-12.5
		l-42.12,5.55c-14.59,1.21-28.46,6.19-40.5,14.52l-0.36,0.25C15.78,97.47,7.6,108.82,3.8,121.88l-0.13,0.43
		c-4.29,14.73-4.84,30.3-1.61,45.3l3.47,16.1c0.1,0.48,0.22,0.96,0.33,1.43L2.6,187.7c1.93,5.53,1.89,5.41,3.81,10.94l4.11-0.04
		c0.26,0.57,0.53,1.14,0.79,1.68l7.26,14.7c6.79,13.76,16.88,25.58,29.39,34.46l0.31,0.21l0.03,0.02
		c11.09,7.87,24.54,11.69,38.11,10.81l0.06,0l0.35-0.01c14.25-0.93,27.94-5.48,39.92-13.24c0.3-0.19,0.6-0.38,0.9-0.58l36.46-21.82
		l-4.35-12.5l9.79-10.5c10.01-10.84,22.58-19.11,36.45-24.07c1.96-0.7,3.95-1.34,5.97-1.91l13.17-3.71l5.83,11.61l30.54-5.28
		c5.03-0.71,9.93-1.89,14.66-3.53c14.18-4.91,26.76-13.84,36.1-25.86l0.36-0.46c10.39-13.38,14.92-30.39,12.54-47.16l-0.02-0.16
		l-0.46-3.4L430.79,55.88z"/>
</g>
<g>
</g>
<g>
</g>
<g>
</g>
<g>
</g>
<g>
</g>
<g>
</g>
<g>
</g>
<g>
</g>
<g>
</g>
<g>
</g>
<g>
</g>
<g>
</g>
<g>
</g>
<g>
</g>
<g>
</g>
</svg>
