<?xml version="1.0" encoding="utf-8"?>
<!-- Generator: Adobe Illustrator 17.1.0, SVG Export Plug-In . SVG Version: 6.00 Build 0)  -->
<!DOCTYPE svg PUBLIC "-//W3C//DTD SVG 1.1//EN" "http://www.w3.org/Graphics/SVG/1.1/DTD/svg11.dtd">
<svg version="1.1" id="Layer_1" xmlns="http://www.w3.org/2000/svg" xmlns:xlink="http://www.w3.org/1999/xlink" x="0px" y="0px"
	 viewBox="0 0 78 36" style="enable-background:new 0 0 78 36;" xml:space="preserve">
<style type="text/css">
	.st0{opacity:0.1;}
	.st1{fill:#FFFFFF;}
	.st2{fill:#333333;}
</style>
<g>
	<rect x="4" y="4" class="st0" width="74" height="32"/>
	<rect class="st1" width="74" height="32"/>
	<g>
		<path class="st2" d="M12.65,13.68h2.68c0.13,0,0.15,0.03,0.21,0.13c0.79,1.6,2.38,4.97,2.72,5.74h0.03
			c-0.01-0.41-0.06-1.26-0.06-2.44v-3.29c0-0.1,0.03-0.14,0.15-0.14h1.98c0.11,0,0.15,0.04,0.15,0.15v8.73
			c0,0.14-0.04,0.17-0.18,0.17h-2.59c-0.14,0-0.17-0.04-0.22-0.13c-0.92-2.13-2.06-4.5-2.77-6.28h-0.01
			c0.07,0.97,0.06,1.61,0.07,2.98v3.28c0,0.08-0.03,0.14-0.14,0.14h-1.99c-0.11,0-0.15-0.01-0.15-0.15v-8.77
			C12.51,13.72,12.55,13.68,12.65,13.68z"/>
		<path class="st2" d="M30.15,22.59c-0.01,0.11-0.07,0.14-0.17,0.14h-5.93c-0.11,0-0.14-0.04-0.14-0.14v-8.77
			c0-0.1,0.03-0.14,0.14-0.14h5.8c0.11,0,0.14,0.01,0.17,0.13l0.2,1.65c0.01,0.08-0.01,0.17-0.13,0.17h-3.74v1.51h3.47
			c0.08,0,0.11,0.03,0.11,0.11v1.71c0,0.1-0.04,0.11-0.13,0.11h-3.46v1.72h3.95c0.11,0,0.13,0.04,0.11,0.14L30.15,22.59z"/>
		<path class="st2" d="M38.73,18.06l2.68,4.48c0.07,0.08,0.01,0.17-0.07,0.18h-2.52c-0.15,0-0.21-0.04-0.27-0.15L37,19.61h-0.01
			l-1.54,2.98c-0.07,0.11-0.13,0.14-0.24,0.14h-2.4c-0.11,0-0.11-0.1-0.06-0.17l2.7-4.34l-2.58-4.38c-0.06-0.08,0.01-0.15,0.08-0.15
			h2.49c0.11,0,0.17,0.01,0.22,0.13l1.51,3.03h0.01l1.44-3.01c0.06-0.1,0.08-0.14,0.22-0.14h2.25c0.13,0,0.15,0.1,0.08,0.21
			L38.73,18.06z"/>
		<path class="st2" d="M46.01,15.63h-2.59c-0.11,0-0.13-0.06-0.11-0.15l0.24-1.65c0.01-0.11,0.06-0.14,0.15-0.14h7.24
			c0.11,0,0.14,0.04,0.15,0.14l0.18,1.62c0.01,0.13-0.03,0.18-0.13,0.18h-2.7v6.93c0,0.13-0.04,0.17-0.14,0.17h-2.13
			c-0.11,0.01-0.17-0.04-0.17-0.15V15.63z"/>
	</g>
	<polygon class="st2" points="59,13 66.35,18.35 59,23.69 	"/>
</g>
<g>
</g>
<g>
</g>
<g>
</g>
<g>
</g>
<g>
</g>
<g>
</g>
<g>
</g>
<g>
</g>
<g>
</g>
<g>
</g>
<g>
</g>
<g>
</g>
<g>
</g>
<g>
</g>
<g>
</g>
</svg>
