<?xml version="1.0" encoding="utf-8"?>
<!-- Generator: Adobe Illustrator 17.1.0, SVG Export Plug-In . SVG Version: 6.00 Build 0)  -->
<!DOCTYPE svg PUBLIC "-//W3C//DTD SVG 1.1//EN" "http://www.w3.org/Graphics/SVG/1.1/DTD/svg11.dtd">
<svg version="1.1" id="Layer_1" xmlns="http://www.w3.org/2000/svg" xmlns:xlink="http://www.w3.org/1999/xlink" x="0px" y="0px"
	 viewBox="0 0 396.67 47.67" style="enable-background:new 0 0 396.67 47.67;" xml:space="preserve">
<style type="text/css">
	.st0{fill:#FFFFFF;}
</style>
<g>
	<g>
		<path class="st0" d="M372.83,47.67c-13.14,0-23.83-10.69-23.83-23.83C349,10.69,359.69,0,372.83,0
			c13.14,0,23.83,10.69,23.83,23.83C396.67,36.98,385.98,47.67,372.83,47.67z M372.83,5.37c-10.18,0-18.47,8.29-18.47,18.47
			s8.28,18.47,18.47,18.47s18.47-8.28,18.47-18.47S383.02,5.37,372.83,5.37z"/>
	</g>
	<g>
		<circle class="st0" cx="372.83" cy="23.83" r="10.88"/>
	</g>
</g>
<g>
	<g>
		<path class="st0" d="M23.83,47.67C10.69,47.67,0,36.98,0,23.83C0,10.69,10.69,0,23.83,0c13.14,0,23.83,10.69,23.83,23.83
			C47.67,36.98,36.98,47.67,23.83,47.67z M23.83,5.37c-10.18,0-18.47,8.29-18.47,18.47S13.65,42.3,23.83,42.3S42.3,34.02,42.3,23.83
			S34.02,5.37,23.83,5.37z"/>
	</g>
	<g>
		<circle class="st0" cx="23.83" cy="23.83" r="10.88"/>
	</g>
</g>
<g>
</g>
<g>
</g>
<g>
</g>
<g>
</g>
<g>
</g>
<g>
</g>
<g>
</g>
<g>
</g>
<g>
</g>
<g>
</g>
<g>
</g>
<g>
</g>
<g>
</g>
<g>
</g>
<g>
</g>
</svg>
