<?xml version="1.0" encoding="utf-8"?>
<!-- Generator: Adobe Illustrator 17.1.0, SVG Export Plug-In . SVG Version: 6.00 Build 0)  -->
<!DOCTYPE svg PUBLIC "-//W3C//DTD SVG 1.1//EN" "http://www.w3.org/Graphics/SVG/1.1/DTD/svg11.dtd">
<svg version="1.1" id="Layer_1" xmlns="http://www.w3.org/2000/svg" xmlns:xlink="http://www.w3.org/1999/xlink" x="0px" y="0px"
	 viewBox="0 0 57.87 78.36" style="enable-background:new 0 0 57.87 78.36;" xml:space="preserve">
<style type="text/css">
	.st0{fill:#71DEFF;}
	.st1{fill:#24A7FF;}
	.st2{fill:#1A72A3;}
	.st3{fill:#56A1B2;}
</style>
<rect x="20.16" y="17.1" transform="matrix(0.329 0.9443 -0.9443 0.329 43.9688 -17.0396)" class="st0" width="27.63" height="10.63"/>
<rect x="24.1" y="-0.55" transform="matrix(0.329 0.9443 -0.9443 0.329 26.3474 -22.5834)" class="st0" width="9.92" height="15.59"/>
<rect x="43.92" y="56.33" transform="matrix(0.329 0.9443 -0.9443 0.329 93.3495 -3.129)" class="st1" width="9.92" height="15.59"/>
<rect x="0.75" y="23.86" transform="matrix(0.329 0.9443 -0.9443 0.329 37.3314 5.8199)" class="st0" width="27.63" height="10.63"/>
<rect x="28.55" y="41.19" transform="matrix(0.329 0.9443 -0.9443 0.329 72.3462 -8.8001)" class="st1" width="27.63" height="10.63"/>
<rect x="9.15" y="47.95" transform="matrix(0.329 0.9443 -0.9443 0.329 65.7087 14.0595)" class="st1" width="27.63" height="10.63"/>
<rect x="4.37" y="5.98" transform="matrix(0.329 0.9443 -0.9443 0.329 19.5956 0.6703)" class="st0" width="9.92" height="16.3"/>
<rect x="24.18" y="62.85" transform="matrix(0.329 0.9443 -0.9443 0.329 86.5976 20.1247)" class="st1" width="9.92" height="16.3"/>
<rect x="26.56" y="60.33" transform="matrix(0.329 0.9443 -0.9443 0.329 80.2915 18.2937)" class="st2" width="1.42" height="10.63"/>
<rect x="45.97" y="53.57" transform="matrix(0.329 0.9443 -0.9443 0.329 86.9289 -4.5659)" class="st2" width="1.42" height="10.63"/>
<rect x="10.48" y="14.16" transform="matrix(0.329 0.9443 -0.9443 0.329 25.9017 2.5012)" class="st3" width="1.42" height="10.63"/>
<rect x="29.89" y="7.4" transform="matrix(0.329 0.9443 -0.9443 0.329 32.539 -20.3582)" class="st3" width="1.42" height="10.63"/>
<g>
</g>
<g>
</g>
<g>
</g>
<g>
</g>
<g>
</g>
<g>
</g>
<g>
</g>
<g>
</g>
<g>
</g>
<g>
</g>
<g>
</g>
<g>
</g>
<g>
</g>
<g>
</g>
<g>
</g>
</svg>
